<svg width="680" height="588" viewBox="0 0 680 588" fill="none" xmlns="http://www.w3.org/2000/svg" xmlns:xlink="http://www.w3.org/1999/xlink">
  <mask id="mask0_10_18" style="mask-type:alpha" maskUnits="userSpaceOnUse" x="0" y="0" width="680" height="588">
    <path fill-rule="evenodd" clip-rule="evenodd" d="M680 112.187C680 137.954 653.568 161.688 609.146 180.61C653.568 211.682 680 250.658 680 292.973C680 335.869 652.836 375.335 607.304 406.613C652.836 425.66 680 449.692 680 475.813C680 537.649 527.777 587.776 340 587.776C152.223 587.776 0 537.649 0 475.813C0 449.692 27.1636 425.66 72.6961 406.613C27.1636 375.335 0 335.869 0 292.973C0 250.658 26.4319 211.682 70.854 180.61C26.4319 161.688 0 137.954 0 112.187C0 50.3515 152.223 0.223633 340 0.223633C527.777 0.223633 680 50.3515 680 112.187Z" fill="#D9D9D9"/>
  </mask>
  <g mask="url(#mask0_10_18)">
    <rect width="680" height="670" fill="url(#pattern0_10_18)"/>
  </g>
  <defs>
    <pattern id="pattern0_10_18" patternContentUnits="objectBoundingBox" width="1" height="1">
      <use xlink:href="#image0_10_18" transform="matrix(0.000529942 0 0 0.000537851 0 -0.261328)"/>
    </pattern>
  </defs>
</svg>
